<?xml version="1.0" encoding="UTF-8"?>
<svg width="44px" height="44px" viewBox="0 0 44 44" version="1.1" xmlns="http://www.w3.org/2000/svg" xmlns:xlink="http://www.w3.org/1999/xlink">
    <!-- Generator: Sketch 46.2 (44496) - http://www.bohemiancoding.com/sketch -->
    <title>facebook-logo-in-circular-button-outlined-social-symbol</title>
    <desc>Created with Sketch.</desc>
    <defs></defs>
    <g id="Page-1" stroke="none" stroke-width="1" fill="none" fill-rule="evenodd">
        <g id="Artboard-Copy-9" transform="translate(-1107.000000, -606.000000)" fill-rule="nonzero" fill="#FDC935">
            <g id="Group-11" transform="translate(557.000000, 365.000000)">
                <g id="Group-8" transform="translate(366.000000, 64.000000)">
                    <g id="Group-5" transform="translate(0.000000, 177.000000)">
                        <g id="facebook-logo-in-circular-button-outlined-social-symbol" transform="translate(184.000000, 0.000000)">
                            <path d="M44,22 C44,9.84996078 34.1499673,0 22,0 C9.84996078,0 0,9.84996078 0,22 C0,34.1499673 9.84996078,44 22,44 C34.1499673,44 44,34.1499673 44,22 Z M1.99998693,22 C1.99998693,10.9539869 10.9539869,1.99998693 22,1.99998693 C33.0460131,1.99998693 42.0000131,10.9539869 42.0000131,22 C42.0000131,33.0460131 33.0460131,42.0000131 22,42.0000131 C10.9539869,42.0000131 1.99998693,33.0460131 1.99998693,22 Z" id="Shape"></path>
                            <path d="M22.8444202,34 L22.8444202,21.4832394 L27.0917737,21.4832394 L27.7628496,17.3353177 L22.8444202,17.3353177 L22.8444202,15.2554392 C22.8444202,14.17312 23.2093286,13.1400552 24.8069236,13.1400552 L28,13.1400552 L28,9 L23.4668124,9 C19.6553521,9 18.6152865,11.4406043 18.6152865,14.8237022 L18.6152865,17.3334042 L16,17.3334042 L16,21.4832394 L18.6152865,21.4832394 L18.6152865,34 L22.8444202,34 L22.8444202,34 Z" id="Shape"></path>
                        </g>
                    </g>
                </g>
            </g>
        </g>
    </g>
</svg>