<?xml version="1.0" encoding="UTF-8"?>
<svg width="156px" height="47px" viewBox="0 0 156 47" version="1.1" xmlns="http://www.w3.org/2000/svg" xmlns:xlink="http://www.w3.org/1999/xlink">
    <!-- Generator: Sketch 46.2 (44496) - http://www.bohemiancoding.com/sketch -->
    <title>Group 2</title>
    <desc>Created with Sketch.</desc>
    <defs></defs>
    <g id="Page-1" stroke="none" stroke-width="1" fill="none" fill-rule="evenodd">
        <g id="Artboard-Copy-5" transform="translate(-218.000000, -50.000000)">
            <g id="Group-2" transform="translate(218.000000, 50.000000)">
                <g id="Group-3">
                    <path d="M68.494366,34.7286357 C72.5174848,34.7286357 75.031934,32.908183 76.1537652,31.2813955 L72.2853817,27.6404902 C71.5503889,28.6862821 70.35119,29.4609429 68.7651528,29.4609429 C66.2893875,29.4609429 64.3938796,27.7179563 64.3938796,24.8904446 C64.3938796,22.062933 66.2893875,20.3586795 68.7651528,20.3586795 C70.35119,20.3586795 71.5503889,21.0558741 72.2853817,22.1403991 L76.1537652,18.5382268 C75.031934,16.8727063 72.5174848,15.0909866 68.494366,15.0909866 C62.6531071,15.0909866 58.2818338,19.0417563 58.2818338,24.8904446 C58.2818338,30.7778661 62.6531071,34.7286357 68.494366,34.7286357 Z M89.3449525,34.7286357 C83.0008037,34.7286357 79.1711042,30.1581375 79.1711042,24.8904446 C79.1711042,19.6227518 83.0008037,15.0909866 89.3449525,15.0909866 C95.766469,15.0909866 99.5574847,19.6227518 99.5574847,24.8904446 C99.5574847,30.1581375 95.766469,34.7286357 89.3449525,34.7286357 Z M89.3449525,29.4609429 C91.9754532,29.4609429 93.4454389,27.408092 93.4454389,24.8904446 C93.4454389,22.4115304 91.9754532,20.3586795 89.3449525,20.3586795 C86.7531356,20.3586795 85.3218338,22.4115304 85.3218338,24.8904446 C85.3218338,27.408092 86.7531356,29.4609429 89.3449525,29.4609429 Z M122.845153,34.2638393 L122.845153,21.0171411 C122.845153,17.5699009 120.910961,15.0909866 116.655739,15.0909866 C113.522349,15.0909866 111.31737,16.5241089 110.195539,17.8410321 L110.195539,15.555783 L104.238229,15.555783 L104.238229,34.2638393 L110.195539,34.2638393 L110.195539,22.1791321 C110.891848,21.3270054 112.052363,20.3586795 113.831819,20.3586795 C115.688643,20.3586795 116.887842,21.1720732 116.887842,23.4573223 L116.887842,34.2638393 L122.845153,34.2638393 Z M137.699745,34.7286357 C141.722864,34.7286357 144.237313,32.908183 145.359144,31.2813955 L141.490761,27.6404902 C140.755768,28.6862821 139.556569,29.4609429 137.970532,29.4609429 C135.494766,29.4609429 133.599259,27.7179563 133.599259,24.8904446 C133.599259,22.062933 135.494766,20.3586795 137.970532,20.3586795 C139.556569,20.3586795 140.755768,21.0558741 141.490761,22.1403991 L145.359144,18.5382268 C144.237313,16.8727063 141.722864,15.0909866 137.699745,15.0909866 C131.858486,15.0909866 127.487213,19.0417563 127.487213,24.8904446 C127.487213,30.7778661 131.858486,34.7286357 137.699745,34.7286357 Z M152.593021,13.8902625 C154.488529,13.8902625 155.997198,12.3409411 155.997198,10.4430223 C155.997198,8.54510357 154.488529,7.03451518 152.593021,7.03451518 C150.697513,7.03451518 149.188844,8.54510357 149.188844,10.4430223 C149.188844,12.3409411 150.697513,13.8902625 152.593021,13.8902625 Z M155.571676,34.2638393 L155.571676,15.555783 L149.614366,15.555783 L149.614366,34.2638393 L155.571676,34.2638393 Z" id="conci-copy-10" fill="#FFFFFF"></path>
                    <g id="Group-2-Copy-7">
                        <path d="M32.5812251,19.6565526 C31.5325711,19.0760498 30.3236133,18.7577096 29.0625568,18.7577096 C25.1377855,18.7577096 21.9450682,21.9558253 21.9450682,25.8842509 C21.9450682,27.8839091 22.7746403,29.6909582 24.1024901,30.9870578 C28.4226774,28.7225618 31.6073796,24.5894889 32.5812251,19.6565526" id="Fill-28" fill="#FFFFFF"></path>
                        <g id="Group">
                            <path d="M4.76878345,25.8846522 C4.76878345,14.1047255 13.1753818,4.25757895 24.2964577,2.03320993 C21.9840754,0.781249974 19.3390628,0.0710034612 16.527067,0.0710034612 C7.48726868,0.0710034612 0.158713406,7.40887987 0.158713406,16.4601758 C0.158713406,20.9383403 1.9554518,24.9951721 4.862294,27.9538637 C4.8048518,27.2703685 4.76878345,26.581523 4.76878345,25.8846522" id="Fill-30" fill="#FFFFFF"></path>
                            <path d="M43.334671,34.1425051 L43.2945951,34.0983655 C42.4182677,33.1834717 41.2320196,32.6457709 39.9642837,32.5949435 C38.6618153,32.5374282 37.4354913,33.0002254 36.5137444,33.8856928 C34.5139546,35.7622952 31.8702778,36.7895444 29.0622896,36.7895444 C23.0562407,36.7895444 18.1709824,31.8980726 18.1709824,25.8843846 C18.1709824,19.8720342 23.0562407,14.9792249 29.0622896,14.9792249 C31.78879,14.9792249 34.3803681,15.9569842 36.3641276,17.7332693 C37.3139276,18.6066986 38.5389158,19.0521074 39.8240179,18.9812166 C41.1024407,18.918351 42.276666,18.3699498 43.1329554,17.4363301 C44.0253132,16.463921 44.4781715,15.2146362 44.4100423,13.9131864 C44.3419132,12.622437 43.7768423,11.4480558 42.820363,10.6040529 C39.0492162,7.20664018 34.1652938,5.33940076 29.0622896,5.33940076 C17.7475132,5.33940076 8.54340353,14.5552171 8.54340353,25.8843846 C8.54340353,37.241641 17.7475132,46.480196 29.0622896,46.480196 C34.2147208,46.480196 39.189482,44.5206646 43.0701698,40.9627442 C44.9938153,39.1169058 45.0980128,36.0712725 43.334671,34.1425051" id="Fill-32" fill="#FDC935"></path>
                        </g>
                    </g>
                </g>
            </g>
        </g>
    </g>
</svg>