<?xml version="1.0" encoding="UTF-8"?>
<svg width="41px" height="45px" viewBox="0 0 41 45" version="1.1" xmlns="http://www.w3.org/2000/svg" xmlns:xlink="http://www.w3.org/1999/xlink">
    <!-- Generator: Sketch 46.2 (44496) - http://www.bohemiancoding.com/sketch -->
    <title>Shape</title>
    <desc>Created with Sketch.</desc>
    <defs></defs>
    <g id="Page-1" stroke="none" stroke-width="1" fill="none" fill-rule="evenodd">
        <g id="Artboard-Copy-9" transform="translate(-1323.000000, -606.000000)" fill-rule="nonzero" fill="#FDC935">
            <g id="Group-11" transform="translate(557.000000, 365.000000)">
                <g id="Group-8" transform="translate(366.000000, 64.000000)">
                    <g id="Group-5" transform="translate(0.000000, 177.000000)">
                        <g id="share" transform="translate(400.000000, 0.000000)">
                            <path d="M33.6112474,30.2410835 C31.2578326,30.2410835 29.1594452,31.3470091 27.8054595,33.0644764 L14.2450982,25.2453901 C14.5872467,24.3961926 14.7774172,23.4701788 14.7774172,22.5000439 C14.7774172,21.529997 14.5871587,20.6039832 14.2450982,19.7546977 L27.8054595,11.9356115 C29.1595332,13.6529909 31.2578326,14.7590044 33.6112474,14.7590044 C37.6854367,14.7590044 41,11.4485226 41,7.37954613 C41,3.31048182 37.6855247,0 33.6112474,0 C29.5369701,0 26.2224948,3.31039393 26.2224948,7.37937035 C26.2224948,8.34950518 26.4128413,9.27569477 26.7550778,10.1250681 L13.1948925,17.9441544 C11.8408188,16.2265992 9.74234336,15.1204978 7.38875259,15.1204978 C3.31456333,15.1204978 0,18.4309796 0,22.4999561 C0,26.5689325 3.31456333,29.8794143 7.38875259,29.8794143 C9.74234336,29.8794143 11.8408188,28.7733129 13.1948925,27.0557577 L26.7550778,34.8749319 C26.4128413,35.7243052 26.2224948,36.6504069 26.2224948,37.6206296 C26.2224948,41.689694 29.5370581,45 33.6112474,45 C37.6854367,45 41,41.6896061 41,37.6206296 C41,33.5516532 37.6855247,30.2410835 33.6112474,30.2410835 Z M33.6112474,2.09249591 C36.5301576,2.09249591 38.9049566,4.4642198 38.9049566,7.37937035 C38.9049566,10.2946088 36.5302456,12.6664206 33.6112474,12.6664206 C30.6923372,12.6664206 28.3175382,10.2946088 28.3175382,7.37937035 C28.3176262,4.46413191 30.6924252,2.09249591 33.6112474,2.09249591 Z M7.38875259,27.7870063 C4.46984244,27.7870063 2.09504339,25.4151945 2.09504339,22.4999561 C2.09504339,19.5847176 4.46975443,17.2129058 7.38875259,17.2129058 C10.3076628,17.2129058 12.6824618,19.5847176 12.6824618,22.4999561 C12.6824618,25.4151945 10.3076628,27.7870063 7.38875259,27.7870063 Z M33.6112474,42.9074162 C30.6923372,42.9074162 28.3175382,40.5356923 28.3175382,37.6205418 C28.3175382,34.7053033 30.6922492,32.3334915 33.6112474,32.3334915 C36.5301576,32.3334915 38.9049566,34.7053033 38.9049566,37.6205418 C38.9049566,40.5357802 36.5301576,42.9074162 33.6112474,42.9074162 Z" id="Shape"></path>
                        </g>
                    </g>
                </g>
            </g>
        </g>
    </g>
</svg>